<svg width="32" height="32" viewBox="0 0 32 32" fill="none" xmlns="http://www.w3.org/2000/svg">
  <rect width="32" height="32" rx="7" fill="#f0e6dd"/>
  <!-- 김(steam) 두 줄 -->
  <path d="M13 6.5c-1 1-1 2 0 3s1 2 0 3" stroke="#7b4b2a" stroke-width="1.6" stroke-linecap="round" opacity="0.7"/>
  <path d="M18 6.5c-1 1-1 2 0 3s1 2 0 3" stroke="#7b4b2a" stroke-width="1.6" stroke-linecap="round" opacity="0.7"/>
  <!-- 컵 몸통 -->
  <path d="M7 15h15v5.5a5 5 0 0 1-5 5h-5a5 5 0 0 1-5-5V15Z" fill="#7b4b2a"/>
  <!-- 커피 표면 -->
  <ellipse cx="14.5" cy="15" rx="7.5" ry="1.7" fill="#5a3620"/>
  <!-- 손잡이 -->
  <path d="M22 16.5h1.5a3 3 0 0 1 0 6H22" stroke="#7b4b2a" stroke-width="2" fill="none" stroke-linecap="round"/>
</svg>
